<svg width="260" height="75" viewBox="0 0 260 75" fill="none" xmlns="http://www.w3.org/2000/svg">
<path d="M63.986 42.042C63.986 47.118 62.384 50.988 59.18 53.652C55.976 56.316 51.422 57.648 45.518 57.648C39.614 57.648 35.042 56.316 31.802 53.652C28.598 50.988 26.996 47.118 26.996 42.042V19.848H38.93V41.88C38.93 43.968 39.488 45.642 40.604 46.902C41.72 48.126 43.34 48.738 45.464 48.738C47.588 48.738 49.208 48.108 50.324 46.848C51.476 45.588 52.052 43.932 52.052 41.88V19.848H63.986V42.042Z" fill="#006D28"/>
<path d="M107.24 31.242C107.24 33.51 106.628 35.562 105.404 37.398C104.18 39.234 102.398 40.584 100.058 41.448L108.32 57H94.9284L88.3404 43.446H83.9124V57H71.9784V19.848H94.7124C97.3764 19.848 99.6444 20.37 101.516 21.414C103.424 22.422 104.846 23.808 105.782 25.572C106.754 27.3 107.24 29.19 107.24 31.242ZM95.0904 31.728C95.0904 30.756 94.7664 29.946 94.1184 29.298C93.4704 28.65 92.6784 28.326 91.7424 28.326H83.9124V35.184H91.7424C92.6784 35.184 93.4704 34.86 94.1184 34.212C94.7664 33.528 95.0904 32.7 95.0904 31.728Z" fill="#006D28"/>
<path d="M114.548 57V19.848H126.482V57H114.548Z" fill="#006D28"/>
<path d="M153.464 19.2C159.872 19.2 164.822 20.838 168.314 24.114C171.806 27.39 173.552 32.16 173.552 38.424C173.552 44.688 171.806 49.458 168.314 52.734C164.822 56.01 159.872 57.648 153.464 57.648C147.056 57.648 142.106 56.028 138.614 52.788C135.158 49.512 133.43 44.724 133.43 38.424C133.43 32.124 135.158 27.354 138.614 24.114C142.106 20.838 147.056 19.2 153.464 19.2ZM153.464 28.11C150.908 28.11 148.964 28.884 147.632 30.432C146.3 31.98 145.634 34.068 145.634 36.696V40.152C145.634 42.78 146.3 44.868 147.632 46.416C148.964 47.964 150.908 48.738 153.464 48.738C156.02 48.738 157.964 47.964 159.296 46.416C160.664 44.868 161.348 42.78 161.348 40.152V36.696C161.348 34.068 160.664 31.98 159.296 30.432C157.964 28.884 156.02 28.11 153.464 28.11Z" fill="#006D28"/>
<path d="M216.968 42.042C216.968 47.118 215.366 50.988 212.162 53.652C208.958 56.316 204.404 57.648 198.5 57.648C192.596 57.648 188.024 56.316 184.784 53.652C181.58 50.988 179.978 47.118 179.978 42.042V19.848H191.912V41.88C191.912 43.968 192.47 45.642 193.586 46.902C194.702 48.126 196.322 48.738 198.446 48.738C200.57 48.738 202.19 48.108 203.306 46.848C204.458 45.588 205.034 43.932 205.034 41.88V19.848H216.968V42.042Z" fill="#006D28"/>
<path d="M240.567 19.2C245.319 19.2 249.225 20.172 252.285 22.116C255.345 24.024 256.911 26.868 256.983 30.648V31.296H245.805V31.08C245.805 30 245.409 29.1 244.617 28.38C243.825 27.66 242.619 27.3 240.999 27.3C239.415 27.3 238.191 27.534 237.327 28.002C236.499 28.47 236.085 29.046 236.085 29.73C236.085 30.702 236.661 31.422 237.813 31.89C238.965 32.358 240.819 32.844 243.375 33.348C246.363 33.96 248.811 34.608 250.719 35.292C252.663 35.94 254.355 37.02 255.795 38.532C257.235 40.044 257.973 42.096 258.009 44.688C258.009 49.08 256.515 52.338 253.527 54.462C250.575 56.586 246.615 57.648 241.647 57.648C235.851 57.648 231.333 56.676 228.093 54.732C224.889 52.788 223.287 49.35 223.287 44.418H234.573C234.573 46.29 235.059 47.55 236.031 48.198C237.003 48.81 238.515 49.116 240.567 49.116C242.079 49.116 243.321 48.954 244.293 48.63C245.301 48.306 245.805 47.64 245.805 46.632C245.805 45.732 245.247 45.066 244.131 44.634C243.051 44.166 241.269 43.68 238.785 43.176C235.761 42.528 233.259 41.862 231.279 41.178C229.299 40.458 227.571 39.288 226.095 37.668C224.619 36.048 223.881 33.852 223.881 31.08C223.881 27.012 225.447 24.024 228.579 22.116C231.747 20.172 235.743 19.2 240.567 19.2Z" fill="#006D28"/>
<path d="M260 4H37.5C18.9985 4 4 18.9985 4 37.5V37.5C4 56.0015 18.9985 71 37.5 71H132H260" stroke="#006D28" stroke-width="7"/>
</svg>
